<svg width="16" height="16" viewBox="0 0 16 16" fill="none" xmlns="http://www.w3.org/2000/svg">
<path d="M4 1C3.84259 1 3.7077 1.11257 3.67954 1.26745C3.57547 1.83985 3.50138 2.24516 3.41372 2.55047C3.32714 2.85201 3.23762 3.01604 3.12683 3.12683C3.01604 3.23762 2.85201 3.32714 2.55047 3.41372C2.24516 3.50138 1.83985 3.57547 1.26745 3.67954C1.11257 3.7077 1 3.84259 1 4C1 4.15741 1.11257 4.2923 1.26745 4.32046C1.83985 4.42453 2.24516 4.49862 2.55047 4.58628C2.852 4.67286 3.01604 4.76238 3.12683 4.87317C3.23762 4.98396 3.32714 5.148 3.41372 5.44953C3.50138 5.75484 3.57547 6.16015 3.67954 6.73255C3.7077 6.88743 3.84259 7 4 7C4.15741 7 4.2923 6.88743 4.32046 6.73255C4.42453 6.16015 4.49862 5.75484 4.58628 5.44953C4.67286 5.148 4.76238 4.98396 4.87317 4.87317C4.98396 4.76238 5.148 4.67286 5.44953 4.58628C5.75484 4.49862 6.16015 4.42453 6.73255 4.32046C6.88743 4.2923 7 4.15741 7 4C7 3.84259 6.88743 3.7077 6.73255 3.67954C6.16015 3.57547 5.75484 3.50138 5.44953 3.41372C5.148 3.32714 4.98396 3.23762 4.87317 3.12683C4.76238 3.01604 4.67286 2.852 4.58628 2.55047C4.49862 2.24516 4.42453 1.83985 4.32046 1.26745C4.2923 1.11257 4.15741 1 4 1Z" fill="#64B4FA"/>
<path d="M9.25 3.5C9.44849 3.5 9.61858 3.64195 9.65409 3.83724C9.86097 4.97511 10.0111 5.7983 10.1902 6.42209C10.368 7.04109 10.5612 7.41344 10.8239 7.6761C11.0866 7.93875 11.4589 8.13202 12.0779 8.30976C12.7017 8.48886 13.5249 8.63903 14.6628 8.84591C14.858 8.88142 15 9.05151 15 9.25C15 9.44849 14.858 9.61858 14.6628 9.65409C13.5249 9.86097 12.7017 10.0111 12.0779 10.1902C11.4589 10.368 11.0866 10.5612 10.8239 10.8239C10.5612 11.0866 10.368 11.4589 10.1902 12.0779C10.0111 12.7017 9.86097 13.5249 9.65409 14.6628C9.61858 14.858 9.44849 15 9.25 15C9.05151 15 8.88142 14.858 8.84591 14.6628C8.63903 13.5249 8.48886 12.7017 8.30976 12.0779C8.13202 11.4589 7.93876 11.0866 7.6761 10.8239C7.41344 10.5612 7.04109 10.368 6.42209 10.1902C5.7983 10.0111 4.97511 9.86097 3.83724 9.65409C3.64195 9.61858 3.5 9.44849 3.5 9.25C3.5 9.05151 3.64195 8.88142 3.83724 8.84591C4.97511 8.63903 5.7983 8.48886 6.42209 8.30976C7.0411 8.13203 7.41344 7.93876 7.6761 7.67611C7.93876 7.41345 8.13202 7.0411 8.30976 6.4221C8.48886 5.79831 8.63903 4.97511 8.84591 3.83724C8.88142 3.64195 9.05151 3.5 9.25 3.5Z" fill="#64B4FA"/>
</svg>
